# xmcd
#
# Track frame offsets: 
#        150
#        14602
#        37777
#        57860
#        75595
#        98922
#        114662
#        138022
#        153100
#        176252
#        192437
#
# Disc length: 2748 seconds
#
# Revision: 1
# Processed by: cddbd v1.5.2PL0 Copyright (c) Steve Scherf et al.
# Submitted via: ExactAudioCopy v0.99pb4
#
DISCID=7c0aba0b
DTITLE=Vassar Clements - Vassar's Jazz
DYEAR=1996
DGENRE=Straight-ahead Jazz
TTITLE0=Take a Break
TTITLE1=Windjammer
TTITLE2=Ramblin'
TTITLE3=Mixed Melody
TTITLE4=Fiddle Vamp
TTITLE5=Lonesome Fiddle
TTITLE6=Nikki Sue Blues
TTITLE7=Kissimmee Kid
TTITLE8=Molita
TTITLE9=Foolin' 'Round
TTITLE10=The Other End
EXTD=CD subtitle: Golden Anniversary Album\nVassar Clements (1928/2005
EXTD=): fiddle rhythm, fiddle accents\nStephen Davidowski: piano, keyb
EXTD=oards, sax\nRobert Hoban (tracks 2,5,7): piano\nReggie Harris: gu
EXTD=itar\nGene Watson (2,5,7), Jim Stephens: bass\nRay Von Rotz: drum
EXTD=s, percussion\nProduced by Vassar and Millie Clements.\nRecorded by
EXTD=Tim Miller at First Run Studios, Nashville US-TN.\nMixed by Vass
EXTD=ar Clements and Tim Miller.\nMastered by Van O'Dell, Disc and DAT, Na
EXTD=shville US-TN.\nCD: Winter Harvest Entertainment WH 3311-2 (1996-
EXTD=09-17), UPC 791337331126.
EXTT0=(Vassar Clements/Millie Clements)
EXTT1=(Vassar Clements/Millie Clements)
EXTT2=(Vassar Clements/Millie Clements)
EXTT3=(Vassar Clements/Millie Clements)
EXTT4=(Vassar Clements/Millie Clements)
EXTT5=(Vassar Clements/Millie Clements)
EXTT6=(Gene Watson)
EXTT7=(Vassar Clements/Millie Clements)
EXTT8=(Vassar Clements/Jake Landers)
EXTT9=(Vassar Clements/Millie Clements)
EXTT10=(Vassar Clements/Millie Clements)
PLAYORDER=
